# xmcd
#
# Track frame offsets:
# 150
# 16983
# 29508
# 49387
# 67917
# 86994
# 109770
#
# Disc length: 1784 seconds
#
# Revision: 0
# Processed by: cddbd v1.5.1PL0 Copyright (c) Steve Scherf et al.
# Submitted via: Audion 3.0.2 (http://www.panic.com/audion/)
#
DISCID=5a06f607
DTITLE=wild big jöchti - songs for androids
DYEAR=1900
DGENRE=
TTITLE0=my pretty android
TTITLE1=another friday night
TTITLE2=did you really love me?
TTITLE3=assholes
TTITLE4=do you like cars or dogs?
TTITLE5=too many riots in my bathroom
TTITLE6=amplifier
EXTD=
EXTT0=
EXTT1=
EXTT2=
EXTT3=
EXTT4=
EXTT5=
EXTT6=
PLAYORDER=
